<svg width="24" height="24" viewBox="0 0 24 24" fill="none" xmlns="http://www.w3.org/2000/svg">
<g clip-path="url(#clip0)">
<path d="M10.4466 1.10087L11.5469 3.47016C11.9303 4.29582 11.6667 5.35769 10.958 5.8422L9.67476 6.71895C9.42482 6.89034 9.32538 7.25235 9.45283 7.52757L11.6815 12.3271L13.9871 17.2931C14.0508 17.4305 14.1678 17.5392 14.3057 17.603C14.5331 17.7079 15.4835 17.5881 16.391 17.5167L16.6502 17.4964C17.5578 17.425 18.5691 18.0518 18.9091 18.8961L19.6156 20.6485C19.9562 21.4928 19.6386 22.6234 18.8383 23.0551C12.984 26.2138 10.7504 20.4408 10.7504 20.4408L7.8169 14.1218L4.96035 7.96869C4.96035 7.96869 1.99228 2.53629 8.18276 0.103824C9.02984 -0.229074 10.0637 0.275218 10.4466 1.10087Z" fill="#AEB7C7"/>
</g>
<defs>
<clipPath id="clip0">
<rect width="24" height="24" fill="white" transform="matrix(-1 0 0 1 24 0)"/>
</clipPath>
</defs>
</svg>
