<svg width="15" height="15" viewBox="0 0 15 15" fill="none" xmlns="http://www.w3.org/2000/svg">
<path d="M14.7916 2.9782C14.2493 3.21609 13.6715 3.37378 13.069 3.45034C13.6888 3.08029 14.1618 2.49878 14.3842 1.79787C13.8064 2.1424 13.1684 2.38576 12.4884 2.52156C11.9397 1.93732 11.1577 1.57547 10.3045 1.57547C8.64932 1.57547 7.31679 2.91896 7.31679 4.56597C7.31679 4.80294 7.33682 5.03081 7.38604 5.24775C4.90051 5.1265 2.70115 3.93525 1.22368 2.12052C0.965734 2.56805 0.814434 3.08029 0.814434 3.63172C0.814434 4.66713 1.34763 5.58497 2.14243 6.11634C1.66209 6.10725 1.19087 5.96778 0.791647 5.74813C0.791647 5.75725 0.791647 5.76909 0.791647 5.78094C0.791647 7.23381 1.82798 8.44056 3.18695 8.71856C2.9436 8.7851 2.67837 8.817 2.4031 8.817C2.2117 8.817 2.01847 8.80606 1.83709 8.76597C2.22446 9.94994 3.32367 10.8204 4.6307 10.8487C3.61351 11.6443 2.32198 12.1238 0.923806 12.1238C0.678625 12.1238 0.443469 12.1128 0.208313 12.0828C1.53266 12.9368 3.10219 13.4244 4.79476 13.4244C10.2963 13.4244 13.3041 8.86713 13.3041 4.91688C13.3041 4.78472 13.2996 4.65713 13.2932 4.53041C13.8866 4.10931 14.3851 3.58341 14.7916 2.9782Z" fill="#FFC600"/>
</svg>
