<svg width="15" height="15" viewBox="0 0 15 15" fill="none" xmlns="http://www.w3.org/2000/svg">
<path d="M14.7917 2.9782C14.2494 3.21609 13.6715 3.37378 13.069 3.45034C13.6889 3.08029 14.1619 2.49878 14.3843 1.79787C13.8064 2.1424 13.1684 2.38576 12.4884 2.52156C11.9398 1.93732 11.1577 1.57547 10.3046 1.57547C8.64938 1.57547 7.31685 2.91896 7.31685 4.56597C7.31685 4.80294 7.33688 5.03081 7.3861 5.24775C4.90057 5.1265 2.70121 3.93525 1.22374 2.12052C0.965795 2.56805 0.814495 3.08029 0.814495 3.63172C0.814495 4.66713 1.3477 5.58497 2.14249 6.11634C1.66215 6.10725 1.19093 5.96778 0.791708 5.74813C0.791708 5.75725 0.791708 5.7691 0.791708 5.78094C0.791708 7.23381 1.82804 8.44056 3.18701 8.71856C2.94366 8.7851 2.67843 8.817 2.40316 8.817C2.21176 8.817 2.01853 8.80606 1.83715 8.76597C2.22452 9.94994 3.32373 10.8204 4.63076 10.8487C3.61357 11.6443 2.32205 12.1238 0.923867 12.1238C0.678686 12.1238 0.44353 12.1128 0.208374 12.0828C1.53272 12.9368 3.10225 13.4244 4.79482 13.4244C10.2964 13.4244 13.3042 8.86713 13.3042 4.91688C13.3042 4.78472 13.2997 4.65713 13.2933 4.53041C13.8866 4.10931 14.3852 3.58341 14.7917 2.9782Z" fill="#1B2027"/>
</svg>
